<svg xmlns="http://www.w3.org/2000/svg" viewBox="0 0 125 20" width="125" height="20"><defs><style>.a{fill:#fff;}</style></defs><title>paintpad-logo-rgb-black</title><path d="M115,0a9.96594,9.96594,0,0,0-7.5,3.40082,9.97047,9.97047,0,0,0-15,0,9.97047,9.97047,0,0,0-15,0,9.97047,9.97047,0,0,0-15,0,9.97047,9.97047,0,0,0-15,0,9.97047,9.97047,0,0,0-15,0,9.97047,9.97047,0,0,0-15,0,10,10,0,1,0,0,13.1983,9.97036,9.97036,0,0,0,15,0,9.97036,9.97036,0,0,0,15,0,9.97036,9.97036,0,0,0,15,0,9.97036,9.97036,0,0,0,15,0,9.97036,9.97036,0,0,0,15,0,9.97036,9.97036,0,0,0,15,0A9.99582,9.99582,0,1,0,115,0Z"/><path class="a" d="M111.843,5.75h3.08423a3.27448,3.27448,0,0,1,2.34375.73462,3.02745,3.02745,0,0,1,.76489,2.27673v2.47718a3.02721,3.02721,0,0,1-.76489,2.27685,3.27394,3.27394,0,0,1-2.34375.73462H111.843V12.70789h.80151v-5.428H111.843Zm3.08423,6.97a1.46976,1.46976,0,0,0,1.17187-.39465,1.885,1.885,0,0,0,.334-1.23242V8.76135a1.61834,1.61834,0,0,0-.334-1.105,1.5128,1.5128,0,0,0-1.17187-.37646h-.67994V12.72Z"/><path class="a" d="M101.44507,12.42859H98.55518L98.14233,14.25H96.46655l2.02783-8.5h3.01148l2.02783,8.5h-1.67578Zm-2.54981-1.53H101.093l-.98364-4.34717h-.21851Z"/><path class="a" d="M83.76147,11.04431V14.25H82.15869V5.75h3.32715a2.8319,2.8319,0,0,1,1.14136.2124,2.39948,2.39948,0,0,1,.80761.5586,2.345,2.345,0,0,1,.48584.7893,2.593,2.593,0,0,1,.16382.90467v.29138a2.72662,2.72662,0,0,1-.16382.929,2.44811,2.44811,0,0,1-.48584.8136,2.38269,2.38269,0,0,1-.80761.57678,2.75928,2.75928,0,0,1-1.14136.21863Zm0-1.53h1.56665a1.18134,1.18134,0,0,0,.84376-.2915A.98662.98662,0,0,0,86.48169,8.47V8.32422a.987.987,0,0,0-.30981-.75281,1.18134,1.18134,0,0,0-.84376-.2915H83.76147Z"/><path class="a" d="M66.94019,5.75H73.0603V7.27991H70.80151V14.25H69.19873V7.27991H66.94019Z"/><path class="a" d="M56.15381,13.44861h.2185V5.75H57.9751v8.5H54.84229l-.99561-7.69861h-.21875V14.25H52.02515V5.75H55.158Z"/><path class="a" d="M37.15869,5.75h5.68286V7.27991h-2.04V12.72h2.04v1.53H37.15869V12.72h2.04V7.27991h-2.04Z"/><path class="a" d="M26.44507,12.42859H23.55518L23.14233,14.25H21.46655l2.02783-8.5h3.01148l2.02783,8.5H26.85791Zm-2.54981-1.53H26.093l-.98364-4.34717h-.21851Z"/><path class="a" d="M8.76147,11.04431V14.25H7.15869V5.75h3.32715a2.8319,2.8319,0,0,1,1.14136.2124,2.39948,2.39948,0,0,1,.80761.5586,2.345,2.345,0,0,1,.48584.7893,2.593,2.593,0,0,1,.16382.90467v.29138a2.72662,2.72662,0,0,1-.16382.929,2.44811,2.44811,0,0,1-.48584.8136,2.38269,2.38269,0,0,1-.80761.57678,2.75928,2.75928,0,0,1-1.14136.21863Zm0-1.53h1.56666a1.18133,1.18133,0,0,0,.84375-.2915A.98662.98662,0,0,0,11.48169,8.47V8.32422a.987.987,0,0,0-.30981-.75281,1.18133,1.18133,0,0,0-.84375-.2915H8.76147Z"/></svg>
