<svg xmlns="http://www.w3.org/2000/svg" viewBox="0 0 35 20" width="35" height="20"><defs><style>.a{fill:#fff;}</style></defs><title>paintpad-icon-rgb-black</title><path d="M25,0a9.96594,9.96594,0,0,0-7.5,3.40082,10,10,0,1,0,0,13.1983A9.99582,9.99582,0,1,0,25,0Z"/><path class="a" d="M23.76147,11.04431V14.25H22.15869V5.75h3.32715a2.8319,2.8319,0,0,1,1.14136.2124,2.39948,2.39948,0,0,1,.80761.5586,2.345,2.345,0,0,1,.48584.7893,2.593,2.593,0,0,1,.16382.90467v.29138a2.72662,2.72662,0,0,1-.16382.929,2.44811,2.44811,0,0,1-.48584.8136,2.38269,2.38269,0,0,1-.80761.57678,2.75928,2.75928,0,0,1-1.14136.21863Zm0-1.53h1.56665a1.18134,1.18134,0,0,0,.84376-.2915A.98662.98662,0,0,0,26.48169,8.47V8.32422a.987.987,0,0,0-.30981-.75281,1.18134,1.18134,0,0,0-.84376-.2915H23.76147Z"/><path class="a" d="M8.76147,11.04431V14.25H7.15869V5.75h3.32715a2.8319,2.8319,0,0,1,1.14136.2124,2.39948,2.39948,0,0,1,.80761.5586,2.345,2.345,0,0,1,.48584.7893,2.593,2.593,0,0,1,.16382.90467v.29138a2.72662,2.72662,0,0,1-.16382.929,2.44811,2.44811,0,0,1-.48584.8136,2.38269,2.38269,0,0,1-.80761.57678,2.75928,2.75928,0,0,1-1.14136.21863Zm0-1.53h1.56665a1.18134,1.18134,0,0,0,.84376-.2915A.98662.98662,0,0,0,11.48169,8.47V8.32422a.987.987,0,0,0-.30981-.75281,1.18134,1.18134,0,0,0-.84376-.2915H8.76147Z"/></svg>
